<svg width="317" height="319" xmlns="http://www.w3.org/2000/svg" xmlns:xlink="http://www.w3.org/1999/xlink"><defs><path d="M.04 35.34c8.319.583 6.102.554 15.57-.095 1.888-.194 3.422-1.714 3.624-3.58.684-9.865.684-18.039 0-27.898C19.039 1.969 17.608.49 15.815.21H.04v35.13z" id="a"/><path id="c" d="M4.155.188H.227v13.524h3.928V.188z"/><path id="e" d="M4.265.188H.338v13.524h3.927V.188z"/><path id="g" d="M.032 21.684H5.26V.114H.032z"/><path id="i" d="M.26 21.684h5.227V.114H.26z"/><path id="k" d="M9.606.043H.287v9.26h9.319V.044z"/></defs><g fill="none" fill-rule="evenodd"><g stroke-width="18"><path d="M86.374 290.743c72.268 39.837 163.107 13.44 202.89-58.957 39.778-72.404 13.437-163.385-58.836-203.222-72.27-39.84-163.106-13.443-202.886 58.958-39.783 72.399-13.438 163.386 58.832 203.22z" stroke="#E7E8E8" fill="#FFF"/><path d="M230.466 28.143C182.767 1.848 126.982 4.408 83.124 30.003" stroke="#810052"/><path d="M223.883 24.722C206.83 16.38 188.88 11.59 170.92 10.092" stroke="#550031"/><path d="M223.855 24.71a149.017 149.017 0 0 0-35.924-12.204" stroke="#6DA4D8"/><path d="M223.756 24.659a150.55 150.55 0 0 0-17.656-7.265" stroke="#EF4181"/></g><path d="M158 190v10m-36.658-41h-15m104 0h-15" stroke="#A73F7F" stroke-width="4" stroke-linecap="round"/><path d="M96.559 62v-1.612H92.36v-7.644h-1.807V62h6.006zm7.566 0v-1.612h-4.29v-2.249h3.653v-1.612h-3.653v-2.171h4.29v-1.612h-6.097V62h6.097zm8.918 0l-3.38-9.256h-1.417L104.879 62h1.885l.559-1.638h3.289l.546 1.638h1.885zm-2.912-3.159h-2.301l1.17-3.367 1.131 3.367zm10.491-6.097h-1.885l-1.859 6.032-1.859-6.032h-1.872L116.202 62h1.352l3.068-9.256zM127.837 62v-1.612h-4.29v-2.249h3.653v-1.612h-3.653v-2.171h4.29v-1.612h-6.097V62h6.097zm82.793 0v-1.612h-4.29v-2.249h3.653v-1.612h-3.653v-2.171h4.29v-1.612h-6.097V62h6.097zm8.463 0l-2.886-4.745 2.691-4.511h-2.041l-1.625 2.99-1.612-2.99h-2.054l2.691 4.511L211.384 62h2.067l1.781-3.224L217.026 62h2.067zm2.951 0v-9.256h-1.807V62h1.807zm8.112-7.644v-1.612h-6.643v1.612h2.418V62h1.807v-7.644h2.418zM124.837 273.372c0-1.599.013-2.756-.923-3.692-.65-.65-1.443-1.014-2.496-1.014s-1.859.364-2.509 1.014c-.936.936-.91 2.093-.91 3.692 0 1.599-.026 2.756.91 3.692.65.65 1.456 1.014 2.509 1.014s1.846-.364 2.496-1.014c.936-.936.923-2.093.923-3.692zm-1.807 0c0 1.781-.104 2.21-.455 2.6-.26.299-.663.494-1.157.494s-.91-.195-1.17-.494c-.351-.39-.442-.819-.442-2.6 0-1.781.091-2.21.442-2.6.26-.299.676-.494 1.17-.494.494 0 .897.195 1.157.494.351.39.455.819.455 2.6zM133.768 278v-9.256h-1.807v5.668l-3.666-5.668h-1.612V278h1.807v-5.681l3.666 5.681h1.612zm8.866-2.665c0-1.235-.715-1.82-1.274-2.08.468-.221 1.144-.884 1.144-1.911 0-1.586-1.053-2.6-2.86-2.6h-3.718V278h3.874c1.651 0 2.834-.936 2.834-2.665zm-1.937-3.913c0 .637-.429 1.066-1.196 1.066h-1.768v-2.132h1.768c.767 0 1.196.429 1.196 1.066zm.13 3.822c0 .624-.39 1.144-1.209 1.144h-1.885v-2.275h1.885c.819 0 1.209.507 1.209 1.131zm10.179-1.872c0-1.599.013-2.756-.923-3.692-.65-.65-1.443-1.014-2.496-1.014s-1.859.364-2.509 1.014c-.936.936-.91 2.093-.91 3.692 0 1.599-.026 2.756.91 3.692.65.65 1.456 1.014 2.509 1.014s1.846-.364 2.496-1.014c.936-.936.923-2.093.923-3.692zm-1.807 0c0 1.781-.104 2.21-.455 2.6-.26.299-.663.494-1.157.494s-.91-.195-1.17-.494c-.351-.39-.442-.819-.442-2.6 0-1.781.091-2.21.442-2.6.26-.299.676-.494 1.17-.494.494 0 .897.195 1.157.494.351.39.455.819.455 2.6zM160.002 278l-3.38-9.256h-1.417L151.838 278h1.885l.559-1.638h3.289l.546 1.638h1.885zm-2.912-3.159h-2.301l1.17-3.367 1.131 3.367zM168.153 278l-2.067-3.991c.897-.325 1.69-1.131 1.69-2.431 0-1.547-1.118-2.834-3.003-2.834h-3.627V278h1.807v-3.692h1.3L166.06 278h2.093zm-2.184-6.422c0 .715-.52 1.222-1.313 1.222h-1.703v-2.444h1.703c.793 0 1.313.507 1.313 1.222zm10.4 1.755c0-1.391.104-2.665-.936-3.705-.611-.611-1.482-.884-2.444-.884h-3.341V278h3.341c.962 0 1.833-.273 2.444-.884 1.04-1.04.936-2.392.936-3.783zm-1.807 0c0 1.404-.052 2.067-.39 2.483-.312.377-.728.572-1.352.572h-1.365v-6.032h1.365c.624 0 1.04.195 1.352.572.338.416.39 1.001.39 2.405zm5.46 4.667v-9.256h-1.807V278h1.807zm9.243 0v-9.256h-1.807v5.668l-3.666-5.668h-1.612V278h1.807v-5.681l3.666 5.681h1.612zm8.749-3.796v-1.352h-3.497v1.508h1.703v.351c0 .481-.117.897-.416 1.235-.299.325-.741.52-1.287.52-.494 0-.897-.182-1.157-.481-.351-.39-.442-.832-.442-2.613 0-1.781.091-2.21.442-2.6.26-.299.663-.494 1.157-.494.923 0 1.456.481 1.664 1.352h1.82c-.247-1.56-1.339-2.964-3.484-2.964-1.04 0-1.846.364-2.496 1.014-.936.936-.91 2.093-.91 3.692 0 1.599-.026 2.756.91 3.692.65.65 1.482 1.014 2.496 1.014.988 0 1.872-.286 2.613-1.053.65-.676.884-1.482.884-2.821zM35.182 187.63c0-1.573-1.144-2.886-3.055-2.886h-3.588V194h1.807v-3.484h1.781c1.911 0 3.055-1.313 3.055-2.886zm-1.807 0c0 .754-.52 1.261-1.339 1.261h-1.69v-2.535h1.69c.819 0 1.339.52 1.339 1.274zM42.8 194v-1.612h-4.29v-2.249h3.653v-1.612H38.51v-2.171h4.29v-1.612h-6.097V194H42.8zm8.775 0l-2.067-3.991c.897-.325 1.69-1.131 1.69-2.431 0-1.547-1.118-2.834-3.003-2.834h-3.627V194h1.807v-3.692h1.3L49.482 194h2.093zm-2.184-6.422c0 .715-.52 1.222-1.313 1.222h-1.703v-2.444h1.703c.793 0 1.313.507 1.313 1.222zm9.776-1.222v-1.612H53.07V194h1.807v-3.757h3.653v-1.612h-3.653v-2.275h4.29zm8.099 3.016c0-1.599.013-2.756-.923-3.692-.65-.65-1.443-1.014-2.496-1.014s-1.859.364-2.509 1.014c-.936.936-.91 2.093-.91 3.692 0 1.599-.026 2.756.91 3.692.65.65 1.456 1.014 2.509 1.014s1.846-.364 2.496-1.014c.936-.936.923-2.093.923-3.692zm-1.807 0c0 1.781-.104 2.21-.455 2.6-.26.299-.663.494-1.157.494s-.91-.195-1.17-.494c-.351-.39-.442-.819-.442-2.6 0-1.781.091-2.21.442-2.6.26-.299.676-.494 1.17-.494.494 0 .897.195 1.157.494.351.39.455.819.455 2.6zM76.119 194l-2.067-3.991c.897-.325 1.69-1.131 1.69-2.431 0-1.547-1.118-2.834-3.003-2.834h-3.627V194h1.807v-3.692h1.3L74.026 194h2.093zm-2.184-6.422c0 .715-.52 1.222-1.313 1.222h-1.703v-2.444h1.703c.793 0 1.313.507 1.313 1.222zM85.999 194v-9.256h-1.781l-2.405 5.005-2.418-5.005h-1.781V194h1.807v-5.395l1.781 3.51h1.222l1.768-3.51V194h1.807zm9.308 0l-3.38-9.256H90.51L87.143 194h1.885l.559-1.638h3.289l.546 1.638h1.885zm-2.912-3.159h-2.301l1.17-3.367 1.131 3.367zM103.536 194v-9.256h-1.807v5.668l-3.666-5.668h-1.612V194h1.807v-5.681l3.666 5.681h1.612zm8.658-2.847h-1.833c-.182.741-.65 1.313-1.56 1.313-.494 0-.897-.182-1.157-.481-.351-.39-.455-.832-.455-2.613 0-1.781.104-2.223.455-2.613.26-.299.663-.481 1.157-.481.91 0 1.378.572 1.56 1.313h1.833c-.325-1.937-1.677-2.925-3.406-2.925-1.014 0-1.846.364-2.496 1.014-.936.936-.91 2.093-.91 3.692 0 1.599-.026 2.756.91 3.692.65.65 1.482 1.014 2.496 1.014 1.716 0 3.081-.988 3.406-2.925zm7.657 2.847v-1.612h-4.29v-2.249h3.653v-1.612h-3.653v-2.171h4.29v-1.612h-6.097V194h6.097zm113.089-7.644v-1.612h-6.642v1.612h2.417V194h1.808v-7.644h2.417zm3.276 7.644v-9.256h-1.806V194h1.806zm10.543 0v-9.256h-1.78l-2.406 5.005-2.418-5.005h-1.78V194h1.806v-5.395l1.781 3.51h1.223l1.767-3.51V194h1.808zm8.256 0v-1.612h-4.29v-2.249h3.653v-1.612h-3.653v-2.171h4.29v-1.612h-6.097V194h6.096zm12.752 0l-1.663-1.963c.65-.728.923-1.677.988-2.873h-1.6c-.026.663-.168 1.222-.468 1.625l-1.56-1.846c.234-.156.663-.481.663-.481.572-.416.95-.897.95-1.612 0-1.261-.91-2.184-2.367-2.184-1.546 0-2.47.897-2.47 2.158 0 .884.546 1.534.923 1.963-.806.533-1.663 1.3-1.663 2.483 0 1.742 1.013 2.808 3.054 2.808 1.327 0 1.964-.546 2.392-.884l.676.806h2.145zm-4.29-7.137c0 .325-.233.572-.532.78 0 0-.26.182-.39.26-.326-.377-.612-.702-.612-1.04 0-.429.26-.754.767-.754.481 0 .767.325.767.754zm.442 5.135c-.429.377-.832.546-1.377.546-.78 0-1.405-.533-1.405-1.3 0-.663.377-1.027.936-1.417l1.846 2.171zM214.09 207l-3.38-9.256h-1.417L205.926 207h1.885l.56-1.638h3.288l.546 1.638h1.885zm-2.912-3.159h-2.3l1.17-3.367 1.13 3.367zm10.01-4.485v-1.612h-6.643v1.612h2.418V207h1.807v-7.644h2.418zm7.423 0v-1.612h-6.643v1.612h2.418V207h1.807v-7.644h2.418zm7.566 7.644v-1.612h-4.29v-2.249h3.653v-1.612h-3.653v-2.171h4.29v-1.612h-6.097V207h6.097zm8.853 0v-9.256h-1.807v5.668l-3.666-5.668h-1.612V207h1.807v-5.681l3.666 5.681h1.612zm8.88-4.667c0-1.391.103-2.665-.937-3.705-.61-.611-1.482-.884-2.444-.884h-3.34V207h3.34c.962 0 1.833-.273 2.444-.884 1.04-1.04.936-2.392.936-3.783zm-1.808 0c0 1.404-.052 2.067-.39 2.483-.312.377-.728.572-1.352.572h-1.365v-6.032h1.365c.624 0 1.04.195 1.352.572.338.416.39 1.001.39 2.405zM262.905 207l-3.38-9.256h-1.417L254.741 207h1.885l.56-1.638h3.288l.546 1.638h1.885zm-2.911-3.159h-2.302l1.17-3.367 1.131 3.367zm11.14 3.159v-9.256h-1.807v5.668l-3.666-5.668h-1.612V207h1.807v-5.681l3.666 5.681h1.613zm8.659-2.847h-1.834c-.182.741-.65 1.313-1.56 1.313-.493 0-.897-.182-1.156-.481-.351-.39-.455-.832-.455-2.613 0-1.781.103-2.223.454-2.613.26-.299.663-.481 1.157-.481.91 0 1.378.572 1.56 1.313h1.834c-.326-1.937-1.678-2.925-3.406-2.925-1.014 0-1.846.364-2.497 1.014-.935.936-.91 2.093-.91 3.692 0 1.599-.026 2.756.91 3.692.65.65 1.483 1.014 2.497 1.014 1.716 0 3.08-.988 3.406-2.925zm7.656 2.847v-1.612h-4.29v-2.249h3.654v-1.612h-3.654v-2.171h4.29v-1.612h-6.096V207h6.096z" fill="#9B9B9B"/><path d="M131.683 81.542c-.216-2.045-1.895-3.712-3.94-3.929-.818-.055-1.389-.106-2.564-.154v4.396c0 2.277-1.547 4.123-3.824 4.123-2.276 0-3.824-1.846-3.824-4.123v-4.694a379.605 379.605 0 0 0-17.644 0v4.694c0 2.277-1.547 4.123-3.824 4.123s-3.824-1.846-3.824-4.123V77.46c-1.176.048-1.746.099-2.564.154-2.047.217-3.719 1.884-3.933 3.929-.745 10.813-.747 17.597-.004 28.41.216 2.044 1.88 3.71 3.927 3.927 10.813.743 27.278.743 38.09 0 2.044-.216 3.712-1.883 3.929-3.927.744-10.813.74-17.6-.001-28.41" fill="#6DA4D8"/><path d="M96.12 83.818a1.963 1.963 0 0 1-1.964-1.963v-9.597a1.964 1.964 0 0 1 3.927 0v9.597a1.963 1.963 0 0 1-1.963 1.963m25.174 0a1.964 1.964 0 0 1-1.964-1.963v-9.597a1.964 1.964 0 0 1 3.927 0v9.597a1.963 1.963 0 0 1-1.963 1.963" fill="#A74080"/><path d="M97.569 93.132h-4.043a1.963 1.963 0 0 1 0-3.926h4.043a1.964 1.964 0 0 1 0 3.926m0 8.088h-4.043a1.962 1.962 0 0 1 0-3.926h4.043a1.964 1.964 0 0 1 0 3.926m0 8.088h-4.043a1.964 1.964 0 0 1 0-3.928h4.043a1.965 1.965 0 0 1 0 3.928m13.159 0h-4.042a1.965 1.965 0 0 1 0-3.928h4.042c1.083 0 1.965.88 1.965 1.964a1.966 1.966 0 0 1-1.965 1.964m13.159 0h-4.043a1.963 1.963 0 0 1 0-3.928h4.043a1.964 1.964 0 0 1 0 3.928m-13.819-7.264l-4.55-7.162c-.456-.711-.198-1.626.58-2.046.768-.408 1.76-.178 2.215.537l2.56 4.03 8.766-7.125c.672-.54 1.697-.482 2.291.135.593.62.528 1.562-.146 2.112l-11.716 9.519z" fill="#FFF"/><path d="M91.072 175.134c.005.045.008.091.008.138v2.183c0 .594-.48 1.075-1.074 1.075h-5.531a1.074 1.074 0 0 1-1.073-1.075v-21.931l.05-.053c.013-.01.024-.023.034-.034a.974.974 0 0 0 .054-.06v.002-.001l-.021.026c-.005.003-.009.01-.013.013l.437-.438 4.746-4.746.007.007 2.312-2.313.008-.008.011-.01.028 17.021.017 10.204zm-17.648-9.714v12.035c0 .594.482 1.075 1.076 1.075h5.53c.594 0 1.075-.48 1.075-1.075V157.82l-7.171 7.17c-.16.16-.33.302-.51.43m-8.13-3.512l-1.844 1.846v13.702c0 .592.48 1.073 1.074 1.073h5.53c.595 0 1.076-.48 1.076-1.073V166.14a3.906 3.906 0 0 1-2.753-1.149l-3.083-3.083zm-9.449 9.448l-.21.198a32.24 32.24 0 0 0-.376.373l-1.785 1.785v3.743c0 .594.48 1.075 1.074 1.075h5.53c.595 0 1.076-.48 1.076-1.075v-11.406l-4.96 4.96c-.135.136-.259.258-.349.347" fill="#6DA4D8"/><path d="M96.036 134.759c-.226-.28-.602-.339-.879-.339a2.55 2.55 0 0 0-.53.062L84.389 136.7c-.649.141-.94.397-.991.572-.054.176.055.548.525 1.016l2.457 2.454-3.538 3.538-10.574 10.575-1.351 1.35-4.843-4.844a1.092 1.092 0 0 0-1.544 0l-.414.414-1.593 1.593-13.114 13.114-3.088 3.089c-.25.25-.353.59-.31.915a.643.643 0 0 0 .181.576l1.825 1.826a.67.67 0 0 0 .221.145l.09.088a1.093 1.093 0 0 0 1.542 0l14.706-14.704.725-.726 2.643 2.645c.033.032.068.062.103.09.028.035.057.07.09.102l2.008 2.007a1.092 1.092 0 0 0 1.543 0l4.13-4.129 10.574-10.574 3.541-3.54 2.45 2.447c.5.497.836.536.926.536.33 0 .563-.54.665-1.004l2.223-10.223c.12-.555.064-1.013-.16-1.29" fill="#A24684"/><g transform="translate(209.782 72.78)"><mask id="b" fill="#fff"><use xlink:href="#a"/></mask><path d="M16.612.916L3.595 3.436c-1.275.174-2.327 1.58-2.463 3.269-.518 9.797-.518 11.82 0 21.632.136 1.678 1.188 3.08 2.444 3.253l13.05 3.687c1.226-.217 2.244-1.6 2.381-3.26.519-9.885.519-17.957-.002-27.852-.136-1.655-1.162-3.042-2.393-3.248zm-.033 35.071L3.43 32.27c-1.55-.209-2.834-1.848-3-3.888C-.09 18.528-.09 16.5.43 6.66c.166-2.052 1.45-3.691 3.049-3.91L16.595.21l.057.009c1.603.22 2.887 1.86 3.055 3.899.523 9.931.523 18.024 0 27.946-.168 2.049-1.451 3.69-3.054 3.913l-.074.011z" fill="#6DA3D7" mask="url(#b)"/></g><path d="M216.922 73.847c-1.233 0-2.502.091-5.027.272-.93.066-2.03.145-3.358.235-1.17.123-2.189 1.13-2.317 2.339-.679 9.787-.679 17.815.005 27.656.123 1.16 1.14 2.166 2.36 2.292 1.284.085 2.385.165 3.316.231 5.057.36 5.002.36 10.08-.004.92-.064 2.006-.142 3.314-.232 1.172-.121 2.19-1.129 2.32-2.339.68-9.789.68-17.817-.002-27.654-.127-1.158-1.148-2.166-2.368-2.293-1.262-.085-2.349-.164-3.27-.229-2.542-.182-3.817-.274-5.053-.274m0 36.083c-1.334 0-2.633-.093-5.223-.278-.93-.066-2.027-.145-3.356-.235-2.603-.267-4.654-2.295-4.923-4.825-.697-10.03-.697-18.167-.005-28.14a5.488 5.488 0 0 1 4.877-4.875c1.376-.094 2.472-.173 3.4-.238 5.196-.37 5.277-.37 10.486.002.92.066 2.003.143 3.31.232 2.603.27 4.654 2.298 4.928 4.825.697 10.027.697 18.165.005 28.143a5.493 5.493 0 0 1-4.882 4.872c-1.355.093-2.437.17-3.356.236-2.612.187-3.921.28-5.261.28" fill="#6DA3D7"/><path d="M213.132 92.588c-.83 0-1.501-.665-1.501-1.483 0-.82.671-1.481 1.501-1.481.824 0 1.495.661 1.495 1.481a1.49 1.49 0 0 1-1.495 1.483m16.007-15.662c-.153-1.864-1.32-3.386-2.751-3.582l-13.08 2.532c-1.43.194-2.594 1.715-2.745 3.58-.522 9.863-.522 11.811 0 21.678.15 1.864 1.316 3.385 2.746 3.581l13.079 3.697c1.43-.198 2.598-1.718 2.75-3.587.52-9.864.52-18.037 0-27.899" fill="#6DA3D7"/><path d="M229.854 114.118c-1.002-.93-2.943-1.69-4.316-1.69h-17.237c-1.373 0-3.315.76-4.317 1.69l-4.109 3.81c-1 .93-.697 1.69.675 1.69h32.735c1.374 0 1.678-.76.677-1.69l-4.108-3.81z" fill="#A74080"/><path d="M180.602 167.838h-11.815v4.199h-18.068v-4.199h-14.1l-.537-.267c-1.824-.916-3.305-1.75-4.514-2.513.104 4.092.243 8.982.43 11.556.135 1.315 1.309 2.48 2.722 2.634 6.477.439 14.994.688 23.883.688 8.882 0 17.399-.25 23.97-.699 1.316-.142 2.493-1.308 2.64-2.709.171-2.541.314-7.553.422-11.695-1.199.82-2.662 1.715-4.464 2.695l-.57.31zm-45.076-6.328c.74.435 1.513.87 2.307 1.28h41.465a45.44 45.44 0 0 0 2.139-1.28c1.424-.902 2.693-1.807 3.534-2.524.426-.363.744-.674.92-.916-.004-.527-.015-1.076-.022-1.608-.047-4.573-.254-9.406-.665-15.391-.136-1.316-1.313-2.485-2.726-2.634-6.478-.439-14.991-.685-23.877-.685-8.885 0-17.402.246-23.98.695-1.313.14-2.486 1.308-2.633 2.71-.407 5.87-.608 10.71-.661 15.305-.011.688-.025 1.387-.025 2.064.11.125.34.303.522.46.773.67 2.096 1.58 3.702 2.524z" fill="#639FD4"/><path d="M148.475 135.347c.802.748 2.007.916 2.955.27.143-.096.329-.213.547-.345 1.542-.92 4.758-2.496 7.562-2.496 2.919 0 6.027 1.73 7.318 2.531.38.236.623.403.63.41.426.3.912.446 1.395.446.637 0 1.23-.3 1.692-.777.079-.086.186-.121.258-.221.5-.695.529-1.554.225-2.292-.161-.4-.397-.767-.77-1.034-.22-.157-5.408-3.839-10.748-3.839-5.312 0-10.574 3.515-10.799 3.664-.433.293-.698.713-.866 1.17-.254.695-.221 1.486.23 2.145.1.15.246.25.371.368" fill="#A24684"/><path d="M269.503 145.89c-.22-2.047-1.896-3.712-3.942-3.93-.818-.055-1.39-.105-2.566-.154v4.395c0 2.277-1.546 4.124-3.823 4.124-2.278 0-3.823-1.847-3.823-4.124v-4.694a381.193 381.193 0 0 0-17.645 0v4.694c0 2.277-1.546 4.124-3.824 4.124-2.277 0-3.823-1.847-3.823-4.124v-4.395c-1.176.049-1.747.099-2.564.155-2.046.217-3.719 1.882-3.936 3.928-.741 10.813-.743 17.598-.002 28.41.217 2.044 1.881 3.71 3.927 3.926 10.813.744 27.277.744 38.091 0 2.042-.215 3.71-1.882 3.93-3.927.744-10.81.737-17.6 0-28.409zm-34.119 11.59h-4.04a1.964 1.964 0 0 1 0-3.928h4.04a1.965 1.965 0 0 1 0 3.928zm0 8.088h-4.04a1.964 1.964 0 0 1 0-3.927h4.04a1.964 1.964 0 1 1 0 3.927zm0 8.086h-4.04a1.964 1.964 0 0 1 0-3.927h4.04a1.964 1.964 0 1 1 0 3.927zm13.16-16.174h-4.04a1.963 1.963 0 1 1 0-3.928h4.04a1.964 1.964 0 1 1 0 3.928zm0 16.174h-4.04a1.963 1.963 0 1 1 0-3.927h4.04a1.964 1.964 0 1 1 0 3.927zm13.16-16.174h-4.042a1.962 1.962 0 0 1-1.962-1.964c0-1.084.878-1.964 1.962-1.964h4.043a1.963 1.963 0 0 1 0 3.928zm0 8.088h-4.042a1.962 1.962 0 0 1 0-3.927h4.043a1.962 1.962 0 1 1 0 3.927zm0 8.086h-4.042a1.962 1.962 0 0 1-1.962-1.963c0-1.085.878-1.964 1.962-1.964h4.043c1.084 0 1.962.879 1.962 1.964a1.962 1.962 0 0 1-1.962 1.963z" fill="#6DA4D8"/><g transform="translate(231.544 134)"><mask id="d" fill="#fff"><use xlink:href="#c"/></mask><path d="M2.19 13.712a1.964 1.964 0 0 1-1.963-1.964V2.15a1.963 1.963 0 1 1 3.928 0v9.597c0 1.085-.88 1.964-1.965 1.964" fill="#A74080" mask="url(#d)"/></g><g transform="translate(257.177 134)"><mask id="f" fill="#fff"><use xlink:href="#e"/></mask><path d="M2.3 13.712a1.963 1.963 0 0 1-1.962-1.964V2.15a1.963 1.963 0 1 1 3.927 0v9.597A1.964 1.964 0 0 1 2.3 13.712" fill="#A74080" mask="url(#f)"/></g><path d="M248.941 165.268h-4.04a1.963 1.963 0 1 1 0-3.926h4.04a1.963 1.963 0 1 1 0 3.926" fill="#FFF"/><path d="M133.024 129.046L124 120m61 12.046l9.024-9.046" stroke="#A73F7F" stroke-width="4" stroke-linecap="round"/><path d="M171.518 245.374l-5.362-19.303a1.398 1.398 0 0 1 .982-1.72 1.402 1.402 0 0 1 1.73.976l5.079 18.282 3.877-1.073a1.469 1.469 0 0 1 1.791 1.005l3.886 13.86a1.438 1.438 0 0 1-1.01 1.781l-5.242 1.453a1.455 1.455 0 0 1-1.792-1.005l-3.885-13.86a1.442 1.442 0 0 1-.054-.396z" fill="#A8407F"/><path d="M164.234 246.122l5.076-18.598c.439-2.02-.897-3.665-2.982-3.658l-14.957.056c-2.078.01-3.455 1.674-3.057 3.705l4.507 18.48 11.413.015z" fill="#6DA4D8"/><g transform="matrix(-1 0 0 1 164.465 239.364)"><mask id="h" fill="#fff"><use xlink:href="#g"/></mask><path d="M5.26 18.863c0 1.554-1.177 2.822-2.614 2.822-1.438 0-2.614-1.268-2.614-2.822V2.935C.032 1.38 1.208.113 2.646.113c1.437 0 2.613 1.268 2.613 2.822v15.928z" fill="#6DA4D8" mask="url(#h)"/></g><g transform="matrix(-1 0 0 1 158.404 239.364)"><mask id="j" fill="#fff"><use xlink:href="#i"/></mask><path d="M5.487 18.863c0 1.554-1.176 2.822-2.614 2.822-1.437 0-2.613-1.268-2.613-2.822V2.935C.26 1.38 1.436.113 2.873.113c1.438 0 2.614 1.268 2.614 2.822v15.928z" fill="#6DA4D8" mask="url(#j)"/></g><g transform="matrix(-1 0 0 1 163.556 212.259)"><mask id="l" fill="#fff"><use xlink:href="#k"/></mask><path d="M9.606 4.673c0-2.559-2.083-4.63-4.66-4.63C2.374.042.287 2.113.287 4.672c0 2.559 2.087 4.63 4.66 4.63 2.576 0 4.659-2.071 4.659-4.63" fill="#6DA4D8" mask="url(#l)"/></g></g></svg>