<svg width="35" height="35" viewBox="0 0 35 35" fill="none" xmlns="http://www.w3.org/2000/svg">
<path d="M2.8446 10.7708C2.8446 9.69898 3.4164 8.7086 4.3446 8.1727L16 1.44342C16.9282 0.90752 18.0718 0.907521 19 1.44342L30.6554 8.1727C31.5836 8.7086 32.1554 9.69898 32.1554 10.7708V24.2293C32.1554 25.3011 31.5836 26.2915 30.6554 26.8274L19 33.5566C18.0718 34.0925 16.9282 34.0925 16 33.5566L4.34461 26.8274C3.4164 26.2915 2.8446 25.3011 2.8446 24.2293V10.7708Z" fill="#0a192f" stroke="#08FDD8" stroke-width="1.5"/>
<path d="M13.5 10H17.3574C19.929 10 21.5859 10.7618 22.3281 12.2852C22.595 12.8451 22.7285 13.4766 22.7285 14.1797C22.7285 14.8764 22.6341 15.4655 22.4453 15.9473C22.263 16.4291 22.0058 16.8425 21.6738 17.1876C21.0358 17.8516 20.1569 18.2878 19.0371 18.4961C19.4993 19.9219 20.2838 20.905 21.3906 21.4454C21.7552 21.6277 22.0612 21.7253 22.3086 21.7383C22.7252 21.7514 23.0182 21.7383 23.1875 21.6993V23.5938H22.748C21.2832 23.5938 20.0364 23.073 19.0078 22.0313C18.1028 21.1264 17.4941 19.987 17.1816 18.6133H15.4531V23.5938H13.5V10ZM17.2304 17.0508C18.4088 17.0508 19.2812 16.823 19.8476 16.3672C20.414 15.9115 20.6972 15.2019 20.6972 14.2383C20.6972 12.9558 20.1015 12.129 18.9101 11.7579C18.4934 11.6277 17.9889 11.5626 17.3964 11.5626H15.4531V17.0508H17.2304Z" fill="#08FDD8"/>
</svg>
