<svg width="124" height="36" viewBox="0 0 124 36" fill="none" xmlns="http://www.w3.org/2000/svg">
<g clip-path="url(#clip0_311_418)">
<path d="M0 36V8.48058H7.24394V12.3424C8.45258 9.50011 10.6724 7.77002 13.6584 7.77002C18.4456 7.77002 21.7634 11.9331 21.7634 18.0193C21.7634 24.1056 18.4851 28.2763 13.6584 28.2763C10.7514 28.2763 8.52367 26.5385 7.28343 23.6421V36H0ZM10.7514 13.9798C8.56317 13.9798 6.97535 15.679 6.97535 17.9961C6.93977 18.5038 7.01081 19.0132 7.18407 19.4931C7.35734 19.9729 7.62918 20.4131 7.98287 20.7864C8.33656 21.1597 8.76462 21.4583 9.24073 21.6638C9.71684 21.8693 10.2309 21.9775 10.7514 21.9816C12.9395 21.9816 14.5195 20.2823 14.5195 17.9961C14.5195 15.7099 12.9395 13.9798 10.7514 13.9798Z" fill="#243A62"></path>
<path d="M39.5692 8.18708V14.4974C38.4825 14.0426 37.3214 13.781 36.1408 13.725C33.9921 13.725 32.5543 15.3547 32.5543 17.7104V27.5194H25.2788V8.48058H32.5148V13.2075C33.3838 9.88629 35.2323 7.74683 37.4995 7.74683C38.2094 7.78183 38.9086 7.93057 39.5692 8.18708Z" fill="#243A62"></path>
<path d="M52.5482 28.2532C45.9441 28.2532 41.4888 24.121 41.4888 17.9961C41.4888 11.8713 45.9362 7.74683 52.5482 7.74683C59.1602 7.74683 63.5602 11.879 63.5602 17.9961C63.5602 24.1133 59.1128 28.2532 52.5482 28.2532ZM52.5482 13.9412C50.3205 13.9412 48.7801 15.6018 48.7801 17.9961C48.7801 20.3905 50.3205 22.0588 52.5482 22.0588C54.7759 22.0588 56.34 20.3673 56.34 17.9961C56.34 15.625 54.7601 13.9412 52.5482 13.9412Z" fill="#243A62"></path>
<path d="M67.0753 36V8.48058H74.3114V12.3424C75.52 9.50011 77.7477 7.77002 80.7258 7.77002C85.5209 7.77002 88.8387 11.9331 88.8387 18.0193C88.8387 24.1056 85.5525 28.2763 80.7258 28.2763C77.8267 28.2763 75.599 26.5385 74.3509 23.6421V36H67.0753ZM77.8267 13.9798C75.6385 13.9798 74.0507 15.679 74.0507 17.9961C74.0151 18.5038 74.0861 19.0132 74.2594 19.4931C74.4327 19.9729 74.7045 20.4131 75.0582 20.7864C75.4119 21.1597 75.8399 21.4583 76.316 21.6638C76.7921 21.8693 77.3062 21.9775 77.8267 21.9816C80.0149 21.9816 81.5948 20.2823 81.5948 17.9961C81.5948 15.7099 80.0386 13.9798 77.8267 13.9798Z" fill="#243A62"></path>
<path d="M112.53 21.8348C111.661 25.5576 107.474 28.2532 102.418 28.2532C96.0039 28.2532 91.5564 24.0824 91.5564 17.9267C91.5564 11.7709 96.1224 7.74683 102.568 7.74683C109.015 7.74683 113.217 11.8713 113.217 17.9961C113.217 18.5522 113.178 19.5409 113.138 19.9193H98.9978C99.4876 21.912 100.815 23.1247 102.774 23.1247C103.483 23.1615 104.186 22.9781 104.781 22.6007C105.377 22.2234 105.836 21.6714 106.092 21.0238L112.53 21.8348ZM105.926 16.1888C105.893 15.2966 105.511 14.4507 104.858 13.8266C104.205 13.2025 103.331 12.8481 102.418 12.8367C100.57 12.8367 99.3612 14.1652 98.9899 16.1888H105.926Z" fill="#243A62"></path>
<path d="M124 27.5117H116.756V0H124V27.5117Z" fill="#243A62"></path>
<path d="M95.6877 0.0463867H112.553V5.96271" fill="#EC3E26"></path>
</g>
<defs>
<clipPath id="clip0_311_418">
<rect width="124" height="36" fill="white"></rect>
</clipPath>
</defs>
</svg>